<svg id="Capa_1" enable-background="new 0 0 511.574 511.574" height="512" viewBox="0 0 511.574 511.574" width="512" xmlns="http://www.w3.org/2000/svg"><g><path d="m414.796 99.019v152.545c0 9.67-7.837 17.507-17.507 17.507h-31.1l-33.973-8v-14.894l33.973-8h15.653c1.143 0 2.06-.917 2.06-2.06v-121.65c0-1.133-.916-2.06-2.06-2.06h-15.653l-33.973-7v-15.894l33.973-8h31.1c9.67 0 17.507 7.837 17.507 17.506z" fill="#fff0af"/><path d="m332.216 81.513h33.973v30.894h-33.973z" fill="#ffe07d"/><path d="m332.216 238.177h33.973v30.894h-33.973z" fill="#ffe07d"/><path d="m294.56 313.945h-159.515c-25.782 0-40.084-159.375-40.084-159.375l17.217-117.925h216.707c6.825 0 12.358 5.533 12.358 12.358v218.259c0 25.782-20.901 46.683-46.683 46.683z" fill="#fff0af"/><path d="m160.794 313.94h-25.745c-25.786 0-46.691-20.895-46.691-46.681v-218.257c0-6.828 5.54-12.358 12.358-12.358h25.745c-6.817 0-12.358 5.53-12.358 12.358v218.257c0 25.786 20.905 46.681 46.691 46.681z" fill="#ffe07d"/><path d="m160.794 182.548s-17.909-79.476 17.985-79.195c11.395.089 23.697 4.718 35.184 15.608.808.766 2.058.767 2.868.002 45.601-43.012 107.255 19.584 62.005 64.833l-51.433 51.433z" fill="#fea3c6"/><path d="m177.704 183.793 50.574 50.574-11.421 11.41c-.803.803-2.111.803-2.914 0l-61.984-61.984c-40.09-40.08-2.08-91.097 39.442-78.482-28.589 8.991-45.096 47.094-13.697 78.482z" fill="#fe93bb"/><path d="m35.088 338.615h435.753v112.831h-435.753z" fill="#f2fbff"/><path d="m35.085 338.614h27.805v112.836h-27.805z" fill="#d8ecfe"/><path d="m503.336 474.927h-475.526c-15.356 0-10.066-90.662-10.066-90.662s-5.29-70.836 10.066-70.836h475.526c4.55 0 8.238 3.689 8.238 8.238v23.332c0 4.55-3.688 8.238-8.238 8.238h-461.462c-1.137 0-2.06.922-2.06 2.06v77.76c0 1.137.922 2.06 2.06 2.06h461.462c4.55 0 8.238 3.688 8.238 8.238v23.332c0 4.552-3.688 8.24-8.238 8.24z" fill="#8795de"/><path d="m53.55 474.93h-25.745c-15.355 0-27.805-12.45-27.805-27.805v-105.895c0-15.354 12.45-27.805 27.805-27.805h25.745c-15.354 0-27.805 12.45-27.805 27.805v105.895c0 15.355 12.451 27.805 27.805 27.805z" fill="#6c7fd8"/><path d="m393.201 386.439v61.418c0 1.359-1.287 2.348-2.595 1.988l-27.311-7.404c-.35-.103-.721-.103-1.071 0l-6.18 1.67-16.322-10.931-7.506-46.74h60.985z" fill="#fea3c6"/><path d="m332.216 386.439h25.745v57.154l-23.14 6.251c-1.318.36-2.605-.628-2.605-1.988z" fill="#fe93bb"/><g><path d="m414.019 393.935h-102.623c-4.142 0-7.5-3.358-7.5-7.5s3.358-7.5 7.5-7.5h102.623c4.142 0 7.5 3.358 7.5 7.5s-3.357 7.5-7.5 7.5z" fill="#bec6ed"/></g></g></svg>